<mxfile host="app.diagrams.net" modified="2023-09-21T05:29:03.768Z" agent="Mozilla/5.0 (Windows NT 10.0; Win64; x64) AppleWebKit/537.36 (KHTML, like Gecko) Chrome/117.0.0.0 Safari/537.36 Edg/117.0.2045.31" version="21.8.0" etag="Ly8P1Lo1Cp51A8nYb800" type="github">
  <diagram name="第 1 页" id="HC9xYUhsy4M4waL2_UJ8">
    <mxGraphModel>
      <root>
        <mxCell id="0" />
        <mxCell id="1" parent="0" />
      </root>
    </mxGraphModel>
  </diagram>
</mxfile>
